<svg width="48" height="48" viewBox="0 0 48 48" fill="none" xmlns="http://www.w3.org/2000/svg">
<g clip-path="url(#clip0_0_1)">
<path d="M24 48C25.5913 48 27.1174 47.3679 28.2426 46.2426C29.3679 45.1174 30 43.5913 30 42H18C18 43.5913 18.6321 45.1174 19.7574 46.2426C20.8826 47.3679 22.4087 48 24 48ZM24 5.754L21.609 6.237C18.8969 6.7896 16.459 8.26231 14.708 10.4059C12.9569 12.5494 12.0003 15.2322 12 18C12 19.884 11.598 24.591 10.623 29.226C10.143 31.527 9.495 33.924 8.634 36H39.366C38.505 33.924 37.86 31.53 37.377 29.226C36.402 24.591 36 19.884 36 18C35.999 15.2327 35.0421 12.5506 33.2911 10.4077C31.5401 8.26477 29.1026 6.7925 26.391 6.24L24 5.751V5.754ZM42.66 36C43.329 37.341 44.103 38.403 45 39H3C3.897 38.403 4.671 37.341 5.34 36C8.04 30.6 9 20.64 9 18C9 10.74 14.16 4.68 21.015 3.297C20.9731 2.87986 21.0192 2.45858 21.1501 2.06032C21.281 1.66206 21.494 1.29567 21.7753 0.984774C22.0565 0.67388 22.3998 0.425384 22.783 0.255314C23.1662 0.0852439 23.5808 -0.00262451 24 -0.00262451C24.4192 -0.00262451 24.8338 0.0852439 25.217 0.255314C25.6002 0.425384 25.9435 0.67388 26.2247 0.984774C26.506 1.29567 26.719 1.66206 26.8499 2.06032C26.9808 2.45858 27.0269 2.87986 26.985 3.297C30.3758 3.9867 33.4241 5.82708 35.6137 8.5065C37.8033 11.1859 38.9996 14.5397 39 18C39 20.64 39.96 30.6 42.66 36Z" fill="#3535AD"/>
</g>
<defs>
<clipPath id="clip0_0_1">
<rect width="48" height="48" fill="white"/>
</clipPath>
</defs>
</svg>
