<svg width="48" height="48" viewBox="0 0 48 48" fill="none" xmlns="http://www.w3.org/2000/svg">
<path d="M3 6C3 5.20435 3.31607 4.44129 3.87868 3.87868C4.44129 3.31607 5.20435 3 6 3H39C39.7956 3 40.5587 3.31607 41.1213 3.87868C41.6839 4.44129 42 5.20435 42 6V9H43.5C44.6935 9 45.8381 9.47411 46.682 10.318C47.5259 11.1619 48 12.3065 48 13.5V34.5C48 35.6935 47.5259 36.8381 46.682 37.682C45.8381 38.5259 44.6935 39 43.5 39H41.85C41.5042 40.694 40.5837 42.2166 39.2444 43.31C37.905 44.4033 36.229 45.0004 34.5 45H10.5C8.51088 45 6.60322 44.2098 5.1967 42.8033C3.79018 41.3968 3 39.4891 3 37.5V6ZM42 36H43.5C43.8978 36 44.2794 35.842 44.5607 35.5607C44.842 35.2794 45 34.8978 45 34.5V13.5C45 13.1022 44.842 12.7206 44.5607 12.4393C44.2794 12.158 43.8978 12 43.5 12H42V36ZM39 6H6V37.5C6 38.6935 6.47411 39.8381 7.31802 40.682C8.16193 41.5259 9.30653 42 10.5 42H34.5C35.6935 42 36.8381 41.5259 37.682 40.682C38.5259 39.8381 39 38.6935 39 37.5V6Z" fill="#394158"/>
</svg>
