<svg width="48" height="48" viewBox="0 0 48 48" fill="none" xmlns="http://www.w3.org/2000/svg">
<path d="M42 3.13871C42.7956 3.13871 43.5587 3.4694 44.1213 4.05802C44.6839 4.64664 45 5.44498 45 6.27742V31.3871C45 32.2196 44.6839 33.0179 44.1213 33.6065C43.5587 34.1951 42.7956 34.5258 42 34.5258H13.242C11.6508 34.5261 10.125 35.1878 9 36.3651L3 42.6425V6.27742C3 5.44498 3.31607 4.64664 3.87868 4.05802C4.44129 3.4694 5.20435 3.13871 6 3.13871H42ZM6 0C4.4087 0 2.88258 0.661369 1.75736 1.83862C0.632141 3.01586 0 4.61255 0 6.27742V46.431C6.30446e-05 46.7415 0.0881778 47.045 0.253192 47.3031C0.418206 47.5612 0.652701 47.7623 0.926998 47.8809C1.2013 47.9996 1.50306 48.0304 1.79411 47.9695C2.08515 47.9087 2.35239 47.7587 2.562 47.5389L11.121 38.5842C11.6835 37.9956 12.4464 37.6647 13.242 37.6645H42C43.5913 37.6645 45.1174 37.0032 46.2426 35.8259C47.3679 34.6486 48 33.052 48 31.3871V6.27742C48 4.61255 47.3679 3.01586 46.2426 1.83862C45.1174 0.661369 43.5913 0 42 0H6Z" fill="#394158"/>
</svg>
