<svg width="16" height="16" viewBox="0 0 16 16" fill="none" xmlns="http://www.w3.org/2000/svg">
<path d="M7.247 11.14L2.451 5.658C1.885 5.013 2.345 4 3.204 4H12.796C12.9882 3.99984 13.1765 4.05509 13.3381 4.15914C13.4998 4.26319 13.628 4.41164 13.7074 4.58669C13.7869 4.76175 13.8142 4.956 13.7861 5.14618C13.758 5.33636 13.6757 5.51441 13.549 5.659L8.753 11.139C8.65913 11.2464 8.54338 11.3325 8.41351 11.3915C8.28363 11.4505 8.14264 11.481 8 11.481C7.85735 11.481 7.71636 11.4505 7.58649 11.3915C7.45661 11.3325 7.34086 11.2464 7.247 11.139V11.14Z" fill="#394158"/>
</svg>
