<svg width="48" height="48" viewBox="0 0 48 48" fill="none" xmlns="http://www.w3.org/2000/svg">
<path d="M44.7803 12.5402C42.6341 8.86309 39.723 5.95189 36.0462 3.80598C32.3689 1.65996 28.3543 0.587219 23.9996 0.587219C19.6455 0.587219 15.6296 1.66029 11.953 3.80598C8.27587 5.95178 5.36489 8.86309 3.21876 12.5402C1.07296 16.2173 0 20.2326 0 24.5862C0 29.8158 1.52576 34.5184 4.57804 38.6952C7.63 42.8723 11.5727 45.7627 16.4057 47.3667C16.9683 47.4711 17.3848 47.3977 17.6556 47.1483C17.9265 46.8985 18.0617 46.5857 18.0617 46.2111C18.0617 46.1486 18.0564 45.5864 18.046 44.5237C18.0353 43.461 18.0302 42.534 18.0302 41.743L17.3115 41.8673C16.8532 41.9513 16.2751 41.9868 15.5771 41.9768C14.8794 41.967 14.1552 41.8939 13.4053 41.758C12.6552 41.6232 11.9574 41.3107 11.3115 40.8212C10.666 40.3316 10.2077 39.6908 9.9368 38.8996L9.62432 38.1805C9.41603 37.7018 9.08812 37.17 8.64013 36.587C8.19214 36.0035 7.73912 35.608 7.28085 35.3997L7.06205 35.2431C6.91626 35.139 6.78098 35.0134 6.65588 34.8678C6.53088 34.7221 6.4373 34.5763 6.3748 34.4303C6.3122 34.2842 6.36408 34.1643 6.53099 34.0703C6.69791 33.9763 6.99955 33.9306 7.43725 33.9306L8.062 34.024C8.47869 34.1075 8.9941 34.3569 9.60889 34.7738C10.2233 35.1904 10.7285 35.732 11.1244 36.3983C11.6038 37.2527 12.1813 37.9037 12.8587 38.3517C13.5356 38.7997 14.218 39.0233 14.9054 39.0233C15.5927 39.0233 16.1864 38.9712 16.6866 38.8676C17.1862 38.7634 17.655 38.6067 18.0927 38.3986C18.2802 37.0022 18.7907 35.9294 19.6237 35.1796C18.4364 35.0548 17.3689 34.8669 16.4207 34.617C15.4731 34.3668 14.4938 33.9607 13.4836 33.3977C12.4728 32.8355 11.6343 32.1373 10.9678 31.3043C10.3013 30.471 9.75424 29.3769 9.32749 28.0231C8.90051 26.6687 8.68697 25.1064 8.68697 23.3357C8.68697 20.8145 9.51005 18.669 11.1559 16.8981C10.3849 15.0026 10.4577 12.8777 11.3745 10.5236C11.9786 10.3359 12.8746 10.4767 14.0619 10.9453C15.2495 11.4141 16.119 11.8157 16.6713 12.1486C17.2236 12.4815 17.6661 12.7635 17.9995 12.9923C19.9373 12.4508 21.9371 12.18 23.9994 12.18C26.0617 12.18 28.0619 12.4508 29.9999 12.9923L31.1873 12.2426C31.9993 11.7424 32.9582 11.2841 34.0617 10.8674C35.1659 10.4509 36.0102 10.3362 36.5938 10.5239C37.5309 12.8781 37.6144 15.0029 36.8432 16.8984C38.489 18.6693 39.3124 20.8153 39.3124 23.336C39.3124 25.1067 39.0981 26.674 38.6717 28.0387C38.2449 29.4037 37.6931 30.4967 37.0163 31.32C36.3387 32.1432 35.4948 32.8359 34.4846 33.398C33.4741 33.9606 32.4945 34.3667 31.5469 34.6169C30.5988 34.8671 29.5313 35.0551 28.344 35.1801C29.4269 36.1173 29.9685 37.5965 29.9685 39.6172V46.2103C29.9685 46.5848 30.0987 46.8975 30.3594 47.1474C30.6198 47.3968 31.031 47.4703 31.5936 47.3657C36.4273 45.7619 40.37 42.8714 43.4218 38.6943C46.4734 34.5175 47.9997 29.8149 47.9997 24.5853C47.9986 20.2323 46.9251 16.2173 44.7803 12.5402Z" fill="black"/>
</svg>
