<svg width="48" height="48" viewBox="0 0 48 48" fill="none" xmlns="http://www.w3.org/2000/svg">
<path fill-rule="evenodd" clip-rule="evenodd" d="M15 34.5C15 34.1022 15.158 33.7206 15.4393 33.4393C15.7206 33.158 16.1022 33 16.5 33H43.5C43.8978 33 44.2794 33.158 44.5607 33.4393C44.842 33.7206 45 34.1022 45 34.5C45 34.8978 44.842 35.2794 44.5607 35.5607C44.2794 35.842 43.8978 36 43.5 36H16.5C16.1022 36 15.7206 35.842 15.4393 35.5607C15.158 35.2794 15 34.8978 15 34.5ZM15 22.5C15 22.1022 15.158 21.7206 15.4393 21.4393C15.7206 21.158 16.1022 21 16.5 21H43.5C43.8978 21 44.2794 21.158 44.5607 21.4393C44.842 21.7206 45 22.1022 45 22.5C45 22.8978 44.842 23.2794 44.5607 23.5607C44.2794 23.842 43.8978 24 43.5 24H16.5C16.1022 24 15.7206 23.842 15.4393 23.5607C15.158 23.2794 15 22.8978 15 22.5ZM15 10.5C15 10.1022 15.158 9.72064 15.4393 9.43934C15.7206 9.15804 16.1022 9 16.5 9H43.5C43.8978 9 44.2794 9.15804 44.5607 9.43934C44.842 9.72064 45 10.1022 45 10.5C45 10.8978 44.842 11.2794 44.5607 11.5607C44.2794 11.842 43.8978 12 43.5 12H16.5C16.1022 12 15.7206 11.842 15.4393 11.5607C15.158 11.2794 15 10.8978 15 10.5ZM6 13.5C6.79565 13.5 7.55871 13.1839 8.12132 12.6213C8.68393 12.0587 9 11.2956 9 10.5C9 9.70435 8.68393 8.94129 8.12132 8.37868C7.55871 7.81607 6.79565 7.5 6 7.5C5.20435 7.5 4.44129 7.81607 3.87868 8.37868C3.31607 8.94129 3 9.70435 3 10.5C3 11.2956 3.31607 12.0587 3.87868 12.6213C4.44129 13.1839 5.20435 13.5 6 13.5ZM6 25.5C6.79565 25.5 7.55871 25.1839 8.12132 24.6213C8.68393 24.0587 9 23.2956 9 22.5C9 21.7044 8.68393 20.9413 8.12132 20.3787C7.55871 19.8161 6.79565 19.5 6 19.5C5.20435 19.5 4.44129 19.8161 3.87868 20.3787C3.31607 20.9413 3 21.7044 3 22.5C3 23.2956 3.31607 24.0587 3.87868 24.6213C4.44129 25.1839 5.20435 25.5 6 25.5ZM6 37.5C6.79565 37.5 7.55871 37.1839 8.12132 36.6213C8.68393 36.0587 9 35.2956 9 34.5C9 33.7044 8.68393 32.9413 8.12132 32.3787C7.55871 31.8161 6.79565 31.5 6 31.5C5.20435 31.5 4.44129 31.8161 3.87868 32.3787C3.31607 32.9413 3 33.7044 3 34.5C3 35.2956 3.31607 36.0587 3.87868 36.6213C4.44129 37.1839 5.20435 37.5 6 37.5Z" fill="#394158"/>
</svg>
