<svg width="16" height="16" viewBox="0 0 16 16" fill="none" xmlns="http://www.w3.org/2000/svg">
<path d="M7.24701 4.86L2.45101 10.341C1.88501 10.988 2.34501 12 3.20401 12H12.796C12.9883 12.0002 13.1765 11.9449 13.3381 11.8409C13.4998 11.7368 13.628 11.5884 13.7075 11.4133C13.7869 11.2383 13.8142 11.044 13.7861 10.8538C13.758 10.6636 13.6757 10.4856 13.549 10.341L8.75301 4.861C8.65915 4.75359 8.5434 4.6675 8.41352 4.60852C8.28364 4.54954 8.14265 4.51902 8.00001 4.51902C7.85737 4.51902 7.71638 4.54954 7.5865 4.60852C7.45663 4.6675 7.34087 4.75359 7.24701 4.861V4.86Z" fill="#394158"/>
</svg>
