<svg width="48" height="48" viewBox="0 0 48 48" fill="none" xmlns="http://www.w3.org/2000/svg">
<path d="M16.5 16.5C16.8978 16.5 17.2794 16.658 17.5607 16.9393C17.842 17.2206 18 17.6022 18 18V36C18 36.3978 17.842 36.7794 17.5607 37.0607C17.2794 37.342 16.8978 37.5 16.5 37.5C16.1022 37.5 15.7206 37.342 15.4393 37.0607C15.158 36.7794 15 36.3978 15 36V18C15 17.6022 15.158 17.2206 15.4393 16.9393C15.7206 16.658 16.1022 16.5 16.5 16.5ZM24 16.5C24.3978 16.5 24.7794 16.658 25.0607 16.9393C25.342 17.2206 25.5 17.6022 25.5 18V36C25.5 36.3978 25.342 36.7794 25.0607 37.0607C24.7794 37.342 24.3978 37.5 24 37.5C23.6022 37.5 23.2206 37.342 22.9393 37.0607C22.658 36.7794 22.5 36.3978 22.5 36V18C22.5 17.6022 22.658 17.2206 22.9393 16.9393C23.2206 16.658 23.6022 16.5 24 16.5ZM33 18C33 17.6022 32.842 17.2206 32.5607 16.9393C32.2794 16.658 31.8978 16.5 31.5 16.5C31.1022 16.5 30.7206 16.658 30.4393 16.9393C30.158 17.2206 30 17.6022 30 18V36C30 36.3978 30.158 36.7794 30.4393 37.0607C30.7206 37.342 31.1022 37.5 31.5 37.5C31.8978 37.5 32.2794 37.342 32.5607 37.0607C32.842 36.7794 33 36.3978 33 36V18Z" fill="#394158"/>
<path fill-rule="evenodd" clip-rule="evenodd" d="M43.5 9C43.5 9.79565 43.1839 10.5587 42.6213 11.1213C42.0587 11.6839 41.2956 12 40.5 12H39V39C39 40.5913 38.3679 42.1174 37.2426 43.2426C36.1174 44.3679 34.5913 45 33 45H15C13.4087 45 11.8826 44.3679 10.7574 43.2426C9.63214 42.1174 9 40.5913 9 39V12H7.5C6.70435 12 5.94129 11.6839 5.37868 11.1213C4.81607 10.5587 4.5 9.79565 4.5 9V6C4.5 5.20435 4.81607 4.44129 5.37868 3.87868C5.94129 3.31607 6.70435 3 7.5 3H18C18 2.20435 18.3161 1.44129 18.8787 0.87868C19.4413 0.316071 20.2044 0 21 0H27C27.7956 0 28.5587 0.316071 29.1213 0.87868C29.6839 1.44129 30 2.20435 30 3H40.5C41.2956 3 42.0587 3.31607 42.6213 3.87868C43.1839 4.44129 43.5 5.20435 43.5 6V9ZM12.354 12L12 12.177V39C12 39.7956 12.3161 40.5587 12.8787 41.1213C13.4413 41.6839 14.2044 42 15 42H33C33.7956 42 34.5587 41.6839 35.1213 41.1213C35.6839 40.5587 36 39.7956 36 39V12.177L35.646 12H12.354ZM7.5 9V6H40.5V9H7.5Z" fill="#394158"/>
</svg>
