<svg width="48" height="48" viewBox="0 0 48 48" fill="none" xmlns="http://www.w3.org/2000/svg">
<path d="M39.6 0H8.4C3.76081 0 0 3.76081 0 8.4V39.6C0 44.2392 3.76081 48 8.4 48H39.6C44.2392 48 48 44.2392 48 39.6V8.4C48 3.76081 44.2392 0 39.6 0Z" fill="#4489C8"/>
<path d="M7.215 14.8275H12.975C13.0954 14.8273 13.213 14.8638 13.3122 14.9322C13.4113 15.0005 13.4873 15.0974 13.53 15.21C14.1675 16.8525 16.815 23.28 19.2375 23.805C21.0375 23.805 20.4 15.255 18.1125 15.255C17.5125 15.255 19.1775 14.19 19.29 14.145C21.4158 13.5623 23.6592 13.5623 25.785 14.145C26.9325 14.625 27.1275 15.9675 27.1575 17.1075C27.1875 18.2475 25.8825 23.1075 27.6 23.6325C29.85 24.3225 32.745 17.265 33.42 15.5325C33.4639 15.4213 33.5404 15.326 33.6394 15.2591C33.7385 15.1921 33.8555 15.1567 33.975 15.1575H40.3875C40.4866 15.1572 40.5842 15.1814 40.6717 15.2281C40.7591 15.2747 40.8336 15.3422 40.8886 15.4247C40.9436 15.5071 40.9773 15.6019 40.9867 15.7006C40.9961 15.7992 40.9809 15.8987 40.9425 15.99C39.6216 19.0033 38.038 21.8945 36.21 24.63C36.0546 24.8558 35.9817 25.1281 36.0035 25.4013C36.0254 25.6745 36.1407 25.9319 36.33 26.13C38.25 28.185 43.5 34.005 40.5 34.005H34.0275C33.8602 34.0054 33.6948 33.9702 33.5422 33.9016C33.3896 33.8331 33.2533 33.7328 33.1425 33.6075C32.1375 32.4975 29.2125 29.4075 27.8925 29.655C26.7975 29.8575 26.6925 31.7175 26.745 32.9325C26.7615 33.246 26.6546 33.5535 26.4471 33.789C26.2396 34.0245 25.9481 34.1694 25.635 34.1925C24.4875 34.26 22.92 34.29 22.7775 34.2825C18.2025 33.99 15.495 30.9375 12.9075 27.5325C10.1971 23.9226 8.0828 19.9016 6.645 15.6225C6.61561 15.532 6.60791 15.4358 6.62252 15.3417C6.63713 15.2477 6.67365 15.1583 6.72911 15.081C6.78458 15.0036 6.85745 14.9404 6.94185 14.8963C7.02625 14.8523 7.11982 14.8287 7.215 14.8275V14.8275Z" fill="white"/>
</svg>
