<svg width="48" height="48" viewBox="0 0 48 48" fill="none" xmlns="http://www.w3.org/2000/svg">
<path d="M32.562 24.438C32.7017 24.5773 32.8125 24.7429 32.8881 24.9251C32.9638 25.1073 33.0027 25.3027 33.0027 25.5C33.0027 25.6973 32.9638 25.8927 32.8881 26.0749C32.8125 26.2571 32.7017 26.4227 32.562 26.562L23.562 35.562C23.4227 35.7017 23.2571 35.8125 23.0749 35.8881C22.8927 35.9638 22.6973 36.0027 22.5 36.0027C22.3027 36.0027 22.1073 35.9638 21.9251 35.8881C21.7429 35.8125 21.5773 35.7017 21.438 35.562L16.938 31.062C16.7985 30.9225 16.6879 30.757 16.6124 30.5747C16.537 30.3925 16.4981 30.1972 16.4981 30C16.4981 29.8028 16.537 29.6075 16.6124 29.4252C16.6879 29.243 16.7985 29.0775 16.938 28.938C17.2197 28.6563 17.6017 28.4981 18 28.4981C18.1972 28.4981 18.3925 28.5369 18.5748 28.6124C18.757 28.6879 18.9225 28.7985 19.062 28.938L22.5 32.379L30.438 24.438C30.5773 24.2983 30.7429 24.1875 30.9251 24.1119C31.1073 24.0362 31.3027 23.9973 31.5 23.9973C31.6973 23.9973 31.8927 24.0362 32.0749 24.1119C32.2571 24.1875 32.4227 24.2983 32.562 24.438V24.438Z" fill="#3535AD"/>
<path d="M10.5 0C10.8978 0 11.2794 0.158035 11.5607 0.43934C11.842 0.720644 12 1.10218 12 1.5V3H36V1.5C36 1.10218 36.158 0.720644 36.4393 0.43934C36.7206 0.158035 37.1022 0 37.5 0C37.8978 0 38.2794 0.158035 38.5607 0.43934C38.842 0.720644 39 1.10218 39 1.5V3H42C43.5913 3 45.1174 3.63214 46.2426 4.75736C47.3679 5.88258 48 7.4087 48 9V42C48 43.5913 47.3679 45.1174 46.2426 46.2426C45.1174 47.3679 43.5913 48 42 48H6C4.4087 48 2.88258 47.3679 1.75736 46.2426C0.632141 45.1174 0 43.5913 0 42V9C0 7.4087 0.632141 5.88258 1.75736 4.75736C2.88258 3.63214 4.4087 3 6 3H9V1.5C9 1.10218 9.15804 0.720644 9.43934 0.43934C9.72064 0.158035 10.1022 0 10.5 0V0ZM6 6C5.20435 6 4.44129 6.31607 3.87868 6.87868C3.31607 7.44129 3 8.20435 3 9V42C3 42.7956 3.31607 43.5587 3.87868 44.1213C4.44129 44.6839 5.20435 45 6 45H42C42.7956 45 43.5587 44.6839 44.1213 44.1213C44.6839 43.5587 45 42.7956 45 42V9C45 8.20435 44.6839 7.44129 44.1213 6.87868C43.5587 6.31607 42.7956 6 42 6H6Z" fill="#3535AD"/>
<path d="M7.5 12C7.5 11.6022 7.65804 11.2206 7.93934 10.9393C8.22064 10.658 8.60218 10.5 9 10.5H39C39.3978 10.5 39.7794 10.658 40.0607 10.9393C40.342 11.2206 40.5 11.6022 40.5 12V15C40.5 15.3978 40.342 15.7794 40.0607 16.0607C39.7794 16.342 39.3978 16.5 39 16.5H9C8.60218 16.5 8.22064 16.342 7.93934 16.0607C7.65804 15.7794 7.5 15.3978 7.5 15V12Z" fill="#3535AD"/>
</svg>
