<svg width="48" height="48" viewBox="0 0 48 48" fill="none" xmlns="http://www.w3.org/2000/svg">
<rect width="48" height="48" fill="#E5E5E5"/>
<path fill-rule="evenodd" clip-rule="evenodd" d="M32.562 21.438C32.7017 21.5773 32.8125 21.7429 32.8881 21.9251C32.9638 22.1073 33.0027 22.3027 33.0027 22.5C33.0027 22.6973 32.9638 22.8927 32.8881 23.0749C32.8125 23.2571 32.7017 23.4227 32.562 23.562L23.562 32.562C23.4227 32.7017 23.2571 32.8125 23.0749 32.8881C22.8927 32.9638 22.6973 33.0027 22.5 33.0027C22.3027 33.0027 22.1073 32.9638 21.9251 32.8881C21.7429 32.8125 21.5773 32.7017 21.438 32.562L16.938 28.062C16.7985 27.9225 16.6879 27.757 16.6124 27.5747C16.537 27.3925 16.4981 27.1972 16.4981 27C16.4981 26.8028 16.537 26.6075 16.6124 26.4252C16.6879 26.243 16.7985 26.0775 16.938 25.938C17.2197 25.6563 17.6017 25.4981 18 25.4981C18.1972 25.4981 18.3925 25.5369 18.5748 25.6124C18.757 25.6879 18.9225 25.7985 19.062 25.938L22.5 29.379L30.438 21.438C30.5773 21.2983 30.7429 21.1875 30.9251 21.1119C31.1073 21.0362 31.3027 20.9973 31.5 20.9973C31.6973 20.9973 31.8927 21.0362 32.0749 21.1119C32.2571 21.1875 32.4227 21.2983 32.562 21.438V21.438Z" fill="#3535AD"/>
<path d="M12 4.5H9C7.4087 4.5 5.88258 5.13214 4.75736 6.25736C3.63214 7.38258 3 8.9087 3 10.5V42C3 43.5913 3.63214 45.1174 4.75736 46.2426C5.88258 47.3679 7.4087 48 9 48H39C40.5913 48 42.1174 47.3679 43.2426 46.2426C44.3679 45.1174 45 43.5913 45 42V10.5C45 8.9087 44.3679 7.38258 43.2426 6.25736C42.1174 5.13214 40.5913 4.5 39 4.5H36V7.5H39C39.7956 7.5 40.5587 7.81607 41.1213 8.37868C41.6839 8.94129 42 9.70435 42 10.5V42C42 42.7956 41.6839 43.5587 41.1213 44.1213C40.5587 44.6839 39.7956 45 39 45H9C8.20435 45 7.44129 44.6839 6.87868 44.1213C6.31607 43.5587 6 42.7956 6 42V10.5C6 9.70435 6.31607 8.94129 6.87868 8.37868C7.44129 7.81607 8.20435 7.5 9 7.5H12V4.5Z" fill="#3535AD"/>
<path d="M28.5 3C28.8978 3 29.2794 3.15804 29.5607 3.43934C29.842 3.72064 30 4.10218 30 4.5V7.5C30 7.89782 29.842 8.27936 29.5607 8.56066C29.2794 8.84196 28.8978 9 28.5 9H19.5C19.1022 9 18.7206 8.84196 18.4393 8.56066C18.158 8.27936 18 7.89782 18 7.5V4.5C18 4.10218 18.158 3.72064 18.4393 3.43934C18.7206 3.15804 19.1022 3 19.5 3H28.5ZM19.5 0C18.3065 0 17.1619 0.474106 16.318 1.31802C15.4741 2.16193 15 3.30653 15 4.5V7.5C15 8.69347 15.4741 9.83807 16.318 10.682C17.1619 11.5259 18.3065 12 19.5 12H28.5C29.6935 12 30.8381 11.5259 31.682 10.682C32.5259 9.83807 33 8.69347 33 7.5V4.5C33 3.30653 32.5259 2.16193 31.682 1.31802C30.8381 0.474106 29.6935 0 28.5 0L19.5 0Z" fill="#3535AD"/>
</svg>
