<svg width="48" height="48" viewBox="0 0 48 48" fill="none" xmlns="http://www.w3.org/2000/svg">
<rect width="48" height="48" fill="#E5E5E5"/>
<g clip-path="url(#clip0_0_1)">
<path d="M25.5 16.5C25.5 16.1022 25.342 15.7206 25.0607 15.4393C24.7794 15.158 24.3978 15 24 15C23.6022 15 23.2206 15.158 22.9393 15.4393C22.658 15.7206 22.5 16.1022 22.5 16.5V26.586L18.213 33.726C18.0081 34.0673 17.9472 34.4761 18.0437 34.8623C18.1402 35.2485 18.3862 35.5806 18.7275 35.7855C19.0688 35.9904 19.4776 36.0513 19.8638 35.9548C20.25 35.8583 20.5821 35.6123 20.787 35.271L25.287 27.771C25.4265 27.538 25.5001 27.2715 25.5 27V16.5Z" fill="#3535AD"/>
<path d="M19.5 0C19.1022 0 18.7206 0.158035 18.4393 0.43934C18.158 0.720644 18 1.10218 18 1.5C18 1.89782 18.158 2.27936 18.4393 2.56066C18.7206 2.84196 19.1022 3 19.5 3H21V6.21C16.9148 6.8002 13.0941 8.58102 10.0151 11.33C6.93616 14.079 4.73544 17.6743 3.68788 21.6667C2.64031 25.6592 2.79236 29.8718 4.12502 33.7783C5.45767 37.6849 7.91186 41.1121 11.181 43.632L9.375 45.438C9.09334 45.7193 8.93495 46.1009 8.93467 46.4989C8.93438 46.897 9.09224 47.2788 9.3735 47.5605C9.65476 47.8422 10.0364 48.0006 10.4344 48.0008C10.8325 48.0011 11.2143 47.8433 11.496 47.562L13.734 45.324C16.869 47.0837 20.4049 48.0054 24 48C27.5951 48.0054 31.131 47.0837 34.266 45.324L36.504 47.562C36.7857 47.8433 37.1675 48.0011 37.5656 48.0008C37.9636 48.0006 38.3452 47.8422 38.6265 47.5605C38.9078 47.2788 39.0656 46.897 39.0653 46.4989C39.0651 46.1009 38.9067 45.7193 38.625 45.438L36.822 43.632C40.0912 41.1119 42.5454 37.6844 43.8779 33.7777C45.2104 29.8709 45.3622 25.6581 44.3142 21.6656C43.2663 17.673 41.0652 14.0778 37.9859 11.329C34.9065 8.58021 31.0854 6.79973 27 6.21V3H28.5C28.8978 3 29.2794 2.84196 29.5607 2.56066C29.842 2.27936 30 1.89782 30 1.5C30 1.10218 29.842 0.720644 29.5607 0.43934C29.2794 0.158035 28.8978 0 28.5 0L19.5 0ZM22.614 9.054C23.5367 8.98384 24.4633 8.98384 25.386 9.054C30.026 9.41234 34.3469 11.5539 37.442 15.0293C40.5371 18.5046 42.1659 23.0437 41.9866 27.6941C41.8073 32.3444 39.8339 36.7446 36.4803 39.9714C33.1268 43.1981 28.6538 45.0006 24 45.0006C19.3462 45.0006 14.8732 43.1981 11.5197 39.9714C8.16614 36.7446 6.19267 32.3444 6.01337 27.6941C5.83406 23.0437 7.46285 18.5046 10.558 15.0293C13.6531 11.5539 17.974 9.41234 22.614 9.054V9.054ZM7.59862e-09 10.5C7.59862e-09 12.759 0.999 14.787 2.58 16.161C4.89524 11.6008 8.60085 7.89524 13.161 5.58C12.1586 4.42659 10.8279 3.60688 9.34682 3.2306C7.86577 2.85432 6.30512 2.93941 4.87377 3.4745C3.44242 4.00958 2.20866 4.96913 1.33765 6.22468C0.466638 7.48024 -6.8761e-05 8.9719 7.59862e-09 10.5H7.59862e-09ZM40.5 3C38.241 3 36.213 3.999 34.839 5.58C39.3992 7.89524 43.1048 11.6008 45.42 16.161C46.5734 15.1586 47.3931 13.8279 47.7694 12.3468C48.1457 10.8658 48.0606 9.30512 47.5255 7.87377C46.9904 6.44242 46.0309 5.20866 44.7753 4.33765C43.5198 3.46664 42.0281 2.99993 40.5 3V3Z" fill="#3535AD"/>
</g>
<defs>
<clipPath id="clip0_0_1">
<rect width="48" height="48" fill="white"/>
</clipPath>
</defs>
</svg>
