<svg width="120" height="48" viewBox="0 0 120 48" fill="none" xmlns="http://www.w3.org/2000/svg">
<rect width="120" height="48" fill="#E5E5E5"/>
<g clip-path="url(#clip0_0_1)">
<path d="M42 3C42.7956 3 43.5587 3.31607 44.1213 3.87868C44.6839 4.44129 45 5.20435 45 6V30C45 30.7957 44.6839 31.5587 44.1213 32.1213C43.5587 32.6839 42.7956 33 42 33H13.242C11.6508 33.0003 10.125 33.6327 9 34.758L3 40.758V6C3 5.20435 3.31607 4.44129 3.87868 3.87868C4.44129 3.31607 5.20435 3 6 3H42ZM6 0C4.4087 0 2.88258 0.632141 1.75736 1.75736C0.632141 2.88258 0 4.4087 0 6L0 44.379C6.30446e-05 44.6758 0.0881778 44.9659 0.253192 45.2126C0.418206 45.4593 0.652701 45.6515 0.926998 45.7649C1.2013 45.8783 1.50306 45.9078 1.79411 45.8496C2.08515 45.7914 2.35239 45.6481 2.562 45.438L11.121 36.879C11.6835 36.3164 12.4464 36.0002 13.242 36H42C43.5913 36 45.1174 35.3679 46.2426 34.2426C47.3679 33.1174 48 31.5913 48 30V6C48 4.4087 47.3679 2.88258 46.2426 1.75736C45.1174 0.632141 43.5913 0 42 0L6 0Z" fill="#3535AD"/>
</g>
<defs>
<clipPath id="clip0_0_1">
<rect width="48" height="48" fill="white"/>
</clipPath>
</defs>
</svg>
