<svg width="48" height="48" viewBox="0 0 48 48" fill="none" xmlns="http://www.w3.org/2000/svg">
<g clip-path="url(#clip0_22_8)">
<path d="M36.498 26.82C34.926 30.006 32.796 33.18 30.618 36.03C28.5519 38.7168 26.3427 41.2906 24 43.74C21.6572 41.2906 19.4481 38.7169 17.382 36.03C15.204 33.18 13.074 30.006 11.502 26.82C9.912 23.601 9 20.586 9 18C9 14.0218 10.5804 10.2064 13.3934 7.3934C16.2064 4.58035 20.0218 3 24 3C27.9782 3 31.7936 4.58035 34.6066 7.3934C37.4196 10.2064 39 14.0218 39 18C39 20.586 38.085 23.601 36.498 26.82ZM24 48C24 48 42 30.942 42 18C42 13.2261 40.1036 8.64773 36.7279 5.27208C33.3523 1.89642 28.7739 0 24 0C19.2261 0 14.6477 1.89642 11.2721 5.27208C7.89642 8.64773 6 13.2261 6 18C6 30.942 24 48 24 48Z" fill="#3535AD"/>
<path d="M24 24C22.4087 24 20.8826 23.3679 19.7574 22.2426C18.6321 21.1174 18 19.5913 18 18C18 16.4087 18.6321 14.8826 19.7574 13.7574C20.8826 12.6321 22.4087 12 24 12C25.5913 12 27.1174 12.6321 28.2426 13.7574C29.3679 14.8826 30 16.4087 30 18C30 19.5913 29.3679 21.1174 28.2426 22.2426C27.1174 23.3679 25.5913 24 24 24ZM24 27C26.3869 27 28.6761 26.0518 30.364 24.364C32.0518 22.6761 33 20.3869 33 18C33 15.6131 32.0518 13.3239 30.364 11.636C28.6761 9.94821 26.3869 9 24 9C21.6131 9 19.3239 9.94821 17.636 11.636C15.9482 13.3239 15 15.6131 15 18C15 20.3869 15.9482 22.6761 17.636 24.364C19.3239 26.0518 21.6131 27 24 27V27Z" fill="#3535AD"/>
</g>
<defs>
<clipPath id="clip0_22_8">
<rect width="48" height="48" fill="white"/>
</clipPath>
</defs>
</svg>
