<svg width="48" height="48" viewBox="0 0 48 48" fill="none" xmlns="http://www.w3.org/2000/svg">
<rect width="48" height="48" fill="#E5E5E5"/>
<g clip-path="url(#clip0_0_1)">
<path d="M18 0.833995C18.2928 1.18983 18.4722 1.62531 18.515 2.08416C18.5578 2.54301 18.462 3.00415 18.24 3.408C16.5056 6.59242 15.5998 10.1619 15.606 13.788C15.606 25.851 25.44 35.619 37.56 35.619C39.141 35.619 40.68 35.454 42.159 35.139C42.6124 35.0408 43.0846 35.0784 43.5168 35.247C43.949 35.4156 44.3219 35.7077 44.589 36.087C44.871 36.4813 45.0147 36.9578 44.9979 37.4423C44.9811 37.9268 44.8046 38.3922 44.496 38.766C42.1431 41.6563 39.1747 43.9851 35.8075 45.5826C32.4403 47.18 28.759 48.0059 25.032 48C11.202 48 0 36.858 0 23.13C0 12.798 6.342 3.936 15.372 0.179995C15.8218 -0.0101092 16.3212 -0.0491273 16.7951 0.0688022C17.2689 0.186732 17.6918 0.455241 18 0.833995V0.833995ZM14.574 3.933C11.1018 5.79548 8.19911 8.56392 6.17439 11.9441C4.14968 15.3242 3.0786 19.1898 3.075 23.13C3.075 35.19 12.912 44.958 25.032 44.958C27.9343 44.963 30.8088 44.3924 33.4892 43.279C36.1695 42.1657 38.6024 40.5318 40.647 38.472C39.636 38.598 38.607 38.661 37.56 38.661C23.73 38.661 12.531 27.519 12.531 13.791C12.531 10.29 13.257 6.957 14.574 3.933V3.933Z" fill="#3535AD"/>
<path d="M32.382 9.44399C32.425 9.31408 32.5079 9.20102 32.6188 9.12089C32.7298 9.04076 32.8632 8.99763 33 8.99763C33.1369 8.99763 33.2702 9.04076 33.3812 9.12089C33.4921 9.20102 33.575 9.31408 33.618 9.44399L34.779 12.93C35.298 14.484 36.516 15.702 38.07 16.221L41.556 17.382C41.6859 17.425 41.799 17.5079 41.8791 17.6188C41.9592 17.7298 42.0024 17.8631 42.0024 18C42.0024 18.1368 41.9592 18.2702 41.8791 18.3812C41.799 18.4921 41.6859 18.575 41.556 18.618L38.07 19.779C37.3036 20.0343 36.6072 20.4647 36.0359 21.0359C35.4647 21.6071 35.0344 22.3036 34.779 23.07L33.618 26.556C33.575 26.6859 33.4921 26.799 33.3812 26.8791C33.2702 26.9592 33.1369 27.0024 33 27.0024C32.8632 27.0024 32.7298 26.9592 32.6188 26.8791C32.5079 26.799 32.425 26.6859 32.382 26.556L31.221 23.07C30.9657 22.3036 30.5353 21.6071 29.9641 21.0359C29.3929 20.4647 28.6964 20.0343 27.93 19.779L24.444 18.618C24.3141 18.575 24.201 18.4921 24.1209 18.3812C24.0408 18.2702 23.9977 18.1368 23.9977 18C23.9977 17.8631 24.0408 17.7298 24.1209 17.6188C24.201 17.5079 24.3141 17.425 24.444 17.382L27.93 16.221C28.6964 15.9656 29.3929 15.5353 29.9641 14.9641C30.5353 14.3928 30.9657 13.6964 31.221 12.93L32.382 9.44399V9.44399ZM41.589 0.296994C41.6186 0.211573 41.6741 0.137502 41.7478 0.0850788C41.8214 0.0326558 41.9096 0.00448608 42 0.00448608C42.0904 0.00448608 42.1786 0.0326558 42.2522 0.0850788C42.3259 0.137502 42.3814 0.211573 42.411 0.296994L43.185 2.61899C43.53 3.65699 44.343 4.46999 45.381 4.81499L47.703 5.58899C47.7884 5.61861 47.8625 5.6741 47.9149 5.74776C47.9673 5.82142 47.9955 5.90958 47.9955 5.99999C47.9955 6.0904 47.9673 6.17857 47.9149 6.25222C47.8625 6.32588 47.7884 6.38138 47.703 6.41099L45.381 7.18499C44.8695 7.35516 44.4047 7.64224 44.0235 8.02344C43.6423 8.40464 43.3552 8.86946 43.185 9.38099L42.411 11.703C42.3814 11.7884 42.3259 11.8625 42.2522 11.9149C42.1786 11.9673 42.0904 11.9955 42 11.9955C41.9096 11.9955 41.8214 11.9673 41.7478 11.9149C41.6741 11.8625 41.6186 11.7884 41.589 11.703L40.815 9.38099C40.6448 8.86946 40.3578 8.40464 39.9766 8.02344C39.5954 7.64224 39.1305 7.35516 38.619 7.18499L36.297 6.41099C36.2116 6.38138 36.1375 6.32588 36.0851 6.25222C36.0327 6.17857 36.0045 6.0904 36.0045 5.99999C36.0045 5.90958 36.0327 5.82142 36.0851 5.74776C36.1375 5.6741 36.2116 5.61861 36.297 5.58899L38.619 4.81499C39.657 4.46999 40.47 3.65699 40.815 2.61899L41.589 0.299994V0.296994Z" fill="#3535AD"/>
</g>
<defs>
<clipPath id="clip0_0_1">
<rect width="48" height="48" fill="white"/>
</clipPath>
</defs>
</svg>
